<?xml version="1.0" encoding="UTF-8"?>
<svg width="52px" height="52px" viewBox="0 0 52 52" version="1.1" xmlns="http://www.w3.org/2000/svg" xmlns:xlink="http://www.w3.org/1999/xlink">
    <title>logo</title>
    <g id="Icons" stroke="none" stroke-width="1" fill="none" fill-rule="evenodd">
        <g id="logo" transform="translate(-4.000000, -4.000000)">
            <g transform="translate(3.999733, 4.056200)">
                <path d="M4.72753939,25.3532267 C4.72753939,37.4274307 14.5161148,47.2165273 26.5911758,47.2165273 C38.6662367,47.2165273 48.4548121,37.4274307 48.4548121,25.3532267 C48.4548121,13.2783512 38.6662367,3.48925455 26.5911758,3.48925455 C14.5161148,3.48925455 4.72753939,13.2783512 4.72753939,25.3532267" id="Fill-1" fill="#FFFFFF"></path>
                <path d="M19.8013333,32.578 C21.1713333,33.9073333 23.254,34.9006667 26.5433333,34.9093333 C26.8446667,34.9153333 27.3133333,34.9153333 27.8013333,34.9153333 C28.1126667,34.9033333 30.28,34.7753333 31.4626667,33.85 C32.6033333,32.974 32.8753333,31.252 32.8753333,31.232 L32.918,31.008 L33.0586667,31.1893333 C33.0646667,31.1986667 33.7333333,32.0513333 33.734,33.1073333 C33.734,33.7733333 33.4553333,34.5153333 32.5846667,35.1313333 C31.59,35.8246667 29.5673333,35.8366667 28.3453333,35.8366667 L28.296,35.8473333 L26.7173333,35.8473333 C26.66,35.8506711 26.602,35.8506711 26.5333333,35.8506711 L26.5026667,35.8506711 C21.9773333,35.854 19.3533333,33.9613333 17.9386667,31.8046667 L17.936,31.8046667 C17.932,31.7986667 16.018,29.2233333 16.0153333,26.1666667 C16.018,23.1166667 17.65,20.6086667 17.6533333,20.606 C18.9833333,18.264 21.65,16.088 26.5026667,16.088 C26.5173333,16.088 26.532,16.0906667 26.5433333,16.0906667 C26.5993333,16.0906667 28.1666667,16.0906667 28.33,16.1013333 L28.3093333,16.0953333 C29.568,16.104 31.59,16.1186667 32.5846667,16.8126667 C33.4553333,17.4253333 33.734,18.1673333 33.734,18.8333333 C33.7333333,19.8866667 33.0646667,20.7433333 33.0586667,20.7513333 L32.922,20.9326667 L32.8753333,20.7113333 C32.874,20.6893333 32.6033333,18.9673333 31.4626667,18.0906667 C30.28,17.1686667 28.1186667,17.04 27.8093333,17.0293333 L26.5433333,17.0293333 C22.898,17.0433333 20.7346667,18.2613333 19.3833333,19.8006667 C18.656,20.6893333 17.2733333,22.812 17.2733333,26.144 C17.2706667,30.2646667 19.7213333,32.4786667 19.8146667,32.5606667 L19.8173333,32.5606667 L19.8186667,32.5606667 L19.8013333,32.578 Z M35.0986667,14.2053333 L35.0546667,14.2653333 C34.622,14.9233333 33.7646667,15.3413333 33.05,15.344 L32.9906667,15.344 C32.1453333,15.316 31.5913333,14.946 31.2953333,14.866 C31.0626667,14.8006667 30.6173333,14.6813333 30.1246667,14.6753333 C29.5473333,14.6753333 27.1893333,14.6733333 26.264,14.6733333 C20.5746667,14.6866667 17.7086667,16.926 16.1493333,19.4026667 L16.1493333,19.3986667 C15.668,20.242 14.534,22.6033333 14.534,26.118 C14.534,28.7226667 15.156,30.584 15.6753333,31.682 C15.812,31.96 15.9586667,32.236 16.126,32.508 C17.6813333,35.0006667 20.5473333,37.2566667 26.264,37.2673333 C27.1873333,37.2673333 29.5273333,37.2653333 30.1146667,37.2653333 C30.6113333,37.262 31.0613333,37.14 31.2953333,37.0746667 C31.5913333,36.9946667 32.1453333,36.628 32.982,36.5993333 C33.0073333,36.5933333 33.0313333,36.5933333 33.05,36.5933333 C33.766,36.5993333 34.624,37.0153333 35.056,37.6773333 L35.0966667,37.7433333 L35.0546667,37.7973333 C34.622,38.454 33.7646667,38.878 33.0486667,38.878 L32.9893333,38.878 C32.1453333,38.848 31.5913333,38.478 31.2953333,38.4013333 C31.0706667,38.338 30.6486667,38.2233333 30.1786667,38.21 L26.4166667,38.21 L26.4166667,38.2066667 C26.364,38.2066667 26.3126667,38.21 26.2566667,38.21 C26.252,38.2066667 26.242,38.2066667 26.226,38.21 C21.1846667,38.21 18.064,36.4366667 16.2086667,34.2266667 L16.2086667,34.23 C16.1986667,34.2173333 13.1733333,31.332 13.1733333,26.1553333 C13.1733333,20.9706667 16.2026667,17.7206667 16.2086667,17.7113333 L16.2146667,17.7146667 C18.0686667,15.504 21.188,13.7273333 26.2286667,13.7333333 L26.264,13.7333333 C26.3486667,13.7333333 30.1693333,13.7273333 30.1693333,13.7273333 C30.6446667,13.7193333 31.0706667,13.6053333 31.2953333,13.5426667 C31.5913333,13.4626667 32.1453333,13.092 32.982,13.0646667 C33.0073333,13.0586667 33.0313333,13.062 33.05,13.0586667 C33.766,13.0646667 34.624,13.4833333 35.0533333,14.138 L35.0986667,14.2053333 Z M33.1573333,9.786 C33.1573333,10.4546667 32.874,11.212 31.9893333,11.8186667 C31.54,12.1286667 30.8746667,12.294 30.176,12.3846667 C29.4673333,12.4793333 28.726,12.492 28.0926667,12.492 L27.3106667,12.492 L25.052,12.492 C21.754,12.502 19.2966667,13.2533333 17.4493333,14.4113333 C15.5986667,15.5686667 14.3566667,17.126 13.4913333,18.726 C12.6833333,20.234 12.242,21.782 11.992,23.062 C11.7506667,24.348 11.7006667,25.3613333 11.6926667,25.806 L11.7006667,25.806 L11.6926667,25.9053333 L11.6926667,25.9706667 L11.6926667,26.036 L11.7006667,26.144 L11.6926667,26.144 C11.7086667,27.0113333 11.886,30.21 13.4913333,33.2166667 C14.3566667,34.8233333 15.5986667,36.374 17.4493333,37.5333333 C19.2966667,38.6913333 21.754,39.4453333 25.052,39.4566667 L27.3446667,39.4566667 C27.558,39.4453333 27.8166667,39.4453333 28.102,39.4453333 C28.726,39.4453333 29.4746667,39.4653333 30.176,39.5533333 C30.8746667,39.65 31.54,39.8153333 31.9893333,40.1213333 C32.874,40.7313333 33.1573333,41.4893333 33.1573333,42.154 C33.1573333,42.6806667 32.9906667,43.1533333 32.832,43.4946667 C32.666,43.8446667 32.5066667,44.0553333 32.4986667,44.0613333 L32.3506667,44.2553333 L32.3146667,44.01 C32.3146667,44.0033333 32.024,42.2793333 30.882,41.414 C30.2653333,40.9366667 29.3406667,40.6793333 28.574,40.546 C27.8,40.4066667 27.1846667,40.388 27.1846667,40.388 L25.3613333,40.388 L25.042,40.388 L25.002,40.388 C23.212,40.388 21.64,40.1626667 20.2626667,39.77 C18.8806667,39.3733333 17.6986667,38.8133333 16.6826667,38.14 L16.6826667,38.1473333 C16.674,38.14 10.2353333,34.5673333 10.2353333,26.1353333 C10.2353333,21.7566667 11.842,18.6653333 13.458,16.6846667 C15.066,14.6833333 16.6826667,13.7926667 16.6826667,13.7926667 L16.6893333,13.7926667 C18.716,12.4453333 21.422,11.554 25.0106667,11.554 L25.052,11.554 L27.1766667,11.554 C27.1766667,11.554 27.8,11.5366667 28.5666667,11.3946667 C29.3406667,11.264 30.2653333,11.002 30.882,10.5286667 C31.458,10.0966667 31.8066667,9.44466667 32.024,8.904 C32.2406667,8.372 32.3146667,7.93733333 32.3146667,7.92733333 L32.3506667,7.686 L32.4986667,7.88 C32.5066667,7.88866667 33.1573333,8.73933333 33.1573333,9.786 L33.1573333,9.786 Z M51.9446667,25.9733333 C51.9446667,11.6273333 40.3153333,0 25.9726667,0 C11.628,0 0,11.6273333 0,25.9733333 C0,40.3133333 11.628,51.944 25.9726667,51.944 C40.3153333,51.944 51.9446667,40.3133333 51.9446667,25.9733333 L51.9446667,25.9733333 Z" id="Fill-3" fill="#DD0617"></path>
            </g>
        </g>
    </g>
</svg>